<svg width="141" height="30" viewBox="0 0 141 30" fill="none" xmlns="http://www.w3.org/2000/svg">
<mask id="mask0" mask-type="alpha" maskUnits="userSpaceOnUse" x="0" y="0" width="21" height="4">
<path d="M0 3.36347V0.106934H20.7439V3.36347H0H0Z" fill="white"/>
</mask>
<g mask="url(#mask0)">
<path fill-rule="evenodd" clip-rule="evenodd" d="M-0.000488281 3.36347H16.4763C17.0921 3.36347 17.6693 3.12608 18.1023 2.6934L20.7442 0.106934H4.1038C2.29314 0.106934 0.403591 1.69021 -0.000488281 3.36347Z" fill="#6DBE45"/>
</g>
<path fill-rule="evenodd" clip-rule="evenodd" d="M2.37622 9.20771H10.5887C11.2025 9.20771 11.7817 8.97032 12.2146 8.53956L14.8546 5.95117H6.47859C4.66793 5.95117 2.77838 7.53445 2.37622 9.20771Z" fill="#6DBE45"/>
<path fill-rule="evenodd" clip-rule="evenodd" d="M15.115 21.2144L7.60488 28.6636C6.80057 29.4849 5.67492 29.9999 4.42612 29.9999C1.9824 29.9999 0.000488281 28.0338 0.000488281 25.6062C0.000488281 23.1805 1.9824 21.2144 4.42612 21.2144H15.115Z" fill="#309046"/>
<mask id="mask1" mask-type="alpha" maskUnits="userSpaceOnUse" x="3" y="0" width="28" height="21">
<path d="M3.07715 0H30.1255V20.6284H3.07715V0Z" fill="white"/>
</mask>
<g mask="url(#mask1)">
<path fill-rule="evenodd" clip-rule="evenodd" d="M25.6979 -0.000244141C24.4568 -0.000244141 23.2657 0.522411 22.4287 1.43179L3.07715 20.6283C3.50817 20.5116 3.96035 20.4484 4.426 20.4484H15.7806L28.8286 7.4988C29.6656 6.66983 30.1255 5.56708 30.1255 4.3935C30.1255 1.96976 28.1397 -0.000244141 25.6979 -0.000244141Z" fill="#6CB845"/>
</g>
<mask id="mask2" mask-type="alpha" maskUnits="userSpaceOnUse" x="6" y="21" width="25" height="9">
<path d="M6.94263 29.9997H30.1503V21.2144H6.94263V29.9997Z" fill="white"/>
</mask>
<g mask="url(#mask2)">
<path fill-rule="evenodd" clip-rule="evenodd" d="M15.5861 21.6815L8.07597 29.1308C8.07597 29.1308 7.31784 29.8927 6.94263 29.9999H30.1503C29.7 25.0491 25.4918 21.2144 20.3889 21.2144H17.2659H16.0556L15.5861 21.6815Z" fill="#6DBE45"/>
</g>
<path fill-rule="evenodd" clip-rule="evenodd" d="M60.7935 11.0794C60.7935 12.9383 62.1019 14.2383 63.851 14.2383C65.5982 14.2383 66.9201 12.9383 66.9201 11.0794C66.9201 9.22042 65.5982 7.92048 63.851 7.92048C62.1019 7.92048 60.7935 9.22042 60.7935 11.0794ZM70.095 11.0794C70.095 14.535 67.4415 17.1138 63.851 17.1138C60.2701 17.1138 57.6282 14.535 57.6282 11.0794C57.6282 7.62373 60.2701 5.04492 63.851 5.04492C67.4415 5.04492 70.095 7.62373 70.095 11.0794Z" fill="#424143"/>
<path fill-rule="evenodd" clip-rule="evenodd" d="M74.5068 11.0794C74.5068 12.9383 75.8153 14.2383 77.5625 14.2383C79.3115 14.2383 80.6315 12.9383 80.6315 11.0794C80.6315 9.22042 79.3115 7.92048 77.5625 7.92048C75.8153 7.92048 74.5068 9.22042 74.5068 11.0794ZM83.8064 11.0794C83.8064 14.535 81.1549 17.1138 77.5625 17.1138C73.9835 17.1138 71.3416 14.535 71.3416 11.0794C71.3416 7.62373 73.9835 5.04492 77.5625 5.04492C81.1549 5.04492 83.8064 7.62373 83.8064 11.0794Z" fill="#424143"/>
<path fill-rule="evenodd" clip-rule="evenodd" d="M104.443 9.5181V16.818H102.555C101.89 16.818 101.351 16.282 101.351 15.6215V10.5117C101.351 8.85377 100.506 7.94439 99.1034 7.94439C97.77 7.94439 96.6636 8.80783 96.6636 10.5347V16.818H94.7644C94.0986 16.818 93.5598 16.282 93.5598 15.6215V10.5117C93.5598 8.85377 92.7267 7.94439 91.3124 7.94439C89.9789 7.94439 88.8725 8.80783 88.8725 10.5347V16.818H86.9733C86.3076 16.818 85.7688 16.282 85.7688 15.6215V5.35218H87.5852C88.251 5.35218 88.7898 5.88823 88.7898 6.54873V6.69998C89.6114 5.48236 90.8717 5.04395 92.1802 5.04395C93.8446 5.04395 95.2127 5.79059 95.9843 7.00821C96.8771 5.5532 98.3895 5.04395 99.9 5.04395C102.611 5.04395 104.443 6.85314 104.443 9.5181Z" fill="#424143"/>
<path fill-rule="evenodd" clip-rule="evenodd" d="M117.072 7.20923L114.837 9.0682C114.136 8.32155 113.386 7.9195 112.375 7.9195C110.769 7.9195 109.485 9.17349 109.485 11.0784C109.485 12.9948 110.757 14.2392 112.362 14.2392C113.361 14.2392 114.219 13.7893 114.871 13.079L117.084 14.961C116.001 16.3452 114.386 17.1148 112.458 17.1148C108.781 17.1148 106.32 14.5589 106.32 11.0784C106.32 7.61127 108.781 5.04395 112.458 5.04395C114.386 5.04395 116.014 5.82506 117.072 7.20923Z" fill="#424143"/>
<path fill-rule="evenodd" clip-rule="evenodd" d="M120.973 11.0794C120.973 12.8311 122.128 14.2383 123.946 14.2383C125.718 14.2383 126.921 12.8886 126.921 11.0794C126.921 9.27019 125.718 7.92048 123.946 7.92048C122.128 7.92048 120.973 9.32763 120.973 11.0794ZM129.857 16.819H128.029C127.363 16.819 126.824 16.283 126.824 15.6205V15.5535C126.074 16.4744 124.956 17.1138 123.374 17.1138C120.199 17.1138 117.798 14.5235 117.798 11.0794C117.798 7.63522 120.199 5.04492 123.374 5.04492C124.956 5.04492 126.064 5.68436 126.824 6.61863V5.35315H129.857V16.819Z" fill="#424143"/>
<mask id="mask3" mask-type="alpha" maskUnits="userSpaceOnUse" x="132" y="5" width="9" height="12">
<path d="M140.558 5.02319V16.8088H132.675V5.02319H140.558Z" fill="white"/>
</mask>
<g mask="url(#mask3)">
<path fill-rule="evenodd" clip-rule="evenodd" d="M140.559 5.27208L140.095 8.341C139.581 8.11317 138.842 7.9715 138.213 7.9715C136.772 7.9715 135.785 8.84834 135.785 10.5541V16.8088H133.882C133.218 16.8088 132.675 16.2727 132.675 15.6084V5.32951H134.484C135.148 5.32951 135.689 5.86748 135.689 6.52989V6.58733C136.416 5.50756 137.522 5.02319 138.939 5.02319C139.606 5.02319 140.13 5.117 140.559 5.27208Z" fill="#424143"/>
</g>
<path fill-rule="evenodd" clip-rule="evenodd" d="M56.6051 0.246582L46.6339 0.250411C44.9464 0.250411 43.5783 1.61161 43.5783 3.29253H52.2025L42.7913 15.2064C42.2776 15.8611 42.7451 16.8184 43.5783 16.8184H56.6147C56.6147 15.1375 55.2466 13.7763 53.5571 13.7763H47.9674L57.3882 1.85092C57.9039 1.2 57.4382 0.246582 56.6051 0.246582Z" fill="#424143"/>
<path fill-rule="evenodd" clip-rule="evenodd" d="M51.4281 27.689C51.2818 27.2467 51.1163 26.77 50.9278 26.2569C50.7411 25.7458 50.541 25.2346 50.3313 24.7234C50.1196 24.2123 49.9022 23.7145 49.677 23.2301C49.4519 22.7438 49.2229 22.3016 48.992 21.8957L47.5989 27.689H46.1731L48.0819 19.7534H49.246C49.4615 20.098 49.6847 20.4905 49.9195 20.9347C50.1523 21.3769 50.3794 21.8402 50.6007 22.3246C50.8239 22.8089 51.0374 23.2952 51.2433 23.7853C51.4511 24.2735 51.6301 24.7349 51.786 25.1714L53.0655 19.7534H54.5029L52.5922 27.689H51.4281Z" fill="#424143"/>
<path fill-rule="evenodd" clip-rule="evenodd" d="M58.0124 22.6859C57.7834 22.6859 57.5641 22.7299 57.3562 22.8218C57.1504 22.9137 56.9656 23.042 56.804 23.2009C56.6424 23.3617 56.5038 23.5493 56.3845 23.7656C56.2652 23.9858 56.1786 24.2194 56.1267 24.4721C57.0465 24.4414 57.7161 24.3304 58.1336 24.139C58.5512 23.9475 58.7609 23.6623 58.7609 23.2813C58.7609 23.1281 58.7051 22.9903 58.5935 22.8697C58.4819 22.7452 58.2895 22.6859 58.0124 22.6859ZM54.6643 25.5231C54.6643 25.0139 54.747 24.5199 54.9125 24.0413C55.078 23.5646 55.3147 23.1415 55.6245 22.772C55.9362 22.4025 56.3095 22.1058 56.7482 21.8837C57.1831 21.6635 57.6757 21.5525 58.2183 21.5525C58.8032 21.5525 59.2554 21.6999 59.5768 21.9986C59.9 22.2972 60.0597 22.6782 60.0597 23.1434C60.0597 23.624 59.9424 24.0126 59.7038 24.3113C59.4671 24.6099 59.1592 24.8416 58.7763 25.0101C58.3972 25.1785 57.9701 25.2915 57.4909 25.3547C57.0099 25.414 56.525 25.4523 56.0343 25.4676C56.0266 25.4829 56.0228 25.4982 56.0228 25.5136V25.6284C56.0228 26.3215 56.4615 26.6699 57.3447 26.6699C57.8681 26.6699 58.3876 26.5627 58.911 26.3483L59.0245 27.4721C58.8417 27.5544 58.58 27.6386 58.2433 27.7229C57.9046 27.8071 57.5217 27.8492 57.0907 27.8492C56.6635 27.8492 56.2941 27.788 55.9862 27.6674C55.6803 27.5429 55.4282 27.3764 55.2339 27.1619C55.0376 26.9494 54.8952 26.7025 54.8029 26.4229C54.7105 26.1453 54.6643 25.8448 54.6643 25.5231Z" fill="#424143"/>
<path fill-rule="evenodd" clip-rule="evenodd" d="M61.8249 27.6887C61.6286 26.9095 61.4554 26.0078 61.2976 24.9816C61.1418 23.9555 61.0398 22.8623 60.9917 21.7002H62.4214C62.4271 22.0371 62.4406 22.399 62.4599 22.7876C62.481 23.1782 62.506 23.5687 62.5368 23.9631C62.5676 24.3556 62.6042 24.7347 62.6484 25.1003C62.6908 25.4679 62.7408 25.7991 62.7947 26.0978C62.9929 25.8374 63.2103 25.5253 63.4393 25.1654C63.6702 24.8017 63.8934 24.4207 64.1089 24.0186C64.3244 23.6185 64.5187 23.2165 64.6977 22.8106C64.8747 22.4066 65.0152 22.0371 65.1249 21.7002H66.5757C66.391 22.2267 66.1601 22.7704 65.8811 23.3275C65.6059 23.8846 65.3077 24.4264 64.9844 24.951C64.6611 25.4794 64.3282 25.9772 63.9857 26.452C63.6432 26.9267 63.318 27.3364 63.0102 27.6887H61.8249Z" fill="#424143"/>
<path fill-rule="evenodd" clip-rule="evenodd" d="M69.9106 22.6859C69.6816 22.6859 69.4622 22.7299 69.2544 22.8218C69.0485 22.9137 68.8638 23.042 68.7022 23.2009C68.5406 23.3617 68.402 23.5493 68.2827 23.7656C68.1634 23.9858 68.0768 24.2194 68.0249 24.4721C68.9446 24.4414 69.6143 24.3304 70.0318 24.139C70.4494 23.9475 70.6591 23.6623 70.6591 23.2813C70.6591 23.1281 70.6033 22.9903 70.4917 22.8697C70.3801 22.7452 70.1877 22.6859 69.9106 22.6859ZM66.5625 25.5231C66.5625 25.0139 66.6452 24.5199 66.8107 24.0413C66.9743 23.5646 67.2129 23.1415 67.5227 22.772C67.8344 22.4025 68.2077 22.1058 68.6464 21.8837C69.0813 21.6635 69.5739 21.5525 70.1165 21.5525C70.7014 21.5525 71.1536 21.6999 71.475 21.9986C71.7963 22.2972 71.9579 22.6782 71.9579 23.1434C71.9579 23.624 71.8405 24.0126 71.6019 24.3113C71.3653 24.6099 71.0574 24.8416 70.6745 25.0101C70.2954 25.1785 69.8683 25.2915 69.3891 25.3547C68.9081 25.414 68.4232 25.4523 67.9325 25.4676C67.9248 25.4829 67.921 25.4982 67.921 25.5136V25.6284C67.921 26.3215 68.3597 26.6699 69.2429 26.6699C69.7663 26.6699 70.2858 26.5627 70.8092 26.3483L70.9227 27.4721C70.7399 27.5544 70.4782 27.6386 70.1396 27.7229C69.8028 27.8071 69.4199 27.8492 68.9889 27.8492C68.5598 27.8492 68.1904 27.788 67.8844 27.6674C67.5785 27.5429 67.3264 27.3764 67.1321 27.1619C66.9358 26.9494 66.7934 26.7025 66.701 26.4229C66.6087 26.1453 66.5625 25.8448 66.5625 25.5231Z" fill="#424143"/>
<path fill-rule="evenodd" clip-rule="evenodd" d="M76.7582 22.9252C76.6043 22.8735 76.4388 22.8294 76.2618 22.8007C76.0828 22.7701 75.877 22.7528 75.6384 22.7528C75.5075 22.7528 75.369 22.7643 75.2227 22.7835C75.0765 22.8026 74.9533 22.8256 74.8533 22.8581L73.6969 27.6884H72.3057L73.6853 21.9756C74.0066 21.8684 74.3568 21.7745 74.7321 21.6941C75.1092 21.6137 75.5152 21.5754 75.952 21.5754C76.0444 21.5754 76.1483 21.5812 76.2618 21.5927C76.3792 21.6042 76.4908 21.6156 76.6024 21.631C76.714 21.6482 76.816 21.6673 76.9141 21.6884C77.0084 21.7114 77.0911 21.7401 77.1604 21.7688L76.7582 22.9252Z" fill="#424143"/>
<path fill-rule="evenodd" clip-rule="evenodd" d="M81.7172 26.6346C81.9231 26.6346 82.129 26.6154 82.333 26.579C82.5369 26.5388 82.7197 26.4757 82.8852 26.3838C83.0488 26.2919 83.1834 26.1674 83.2816 26.0124C83.3816 25.8554 83.4336 25.6582 83.4336 25.4208C83.4336 25.2446 83.3932 25.0953 83.3162 24.969C83.2393 24.8426 83.1353 24.7316 83.0064 24.632C82.8775 24.5325 82.7274 24.4406 82.5619 24.3525C82.3984 24.2644 82.2233 24.1706 82.0386 24.0711C81.8384 23.9715 81.6499 23.8586 81.469 23.7322C81.2881 23.6078 81.1303 23.4642 80.9918 23.3034C80.8552 23.1445 80.7455 22.9568 80.6647 22.7424C80.5839 22.528 80.5435 22.2772 80.5435 21.9862C80.5435 21.6358 80.6108 21.3142 80.7455 21.0194C80.8783 20.7265 81.0784 20.4718 81.3439 20.2574C81.6075 20.0449 81.9327 19.8764 82.3195 19.7539C82.7101 19.6333 83.1584 19.572 83.6741 19.572C83.9127 19.572 84.1398 19.5893 84.3591 19.6295C84.5766 19.6658 84.7825 19.7156 84.9729 19.7711C85.1654 19.8286 85.3347 19.8937 85.479 19.9607C85.6252 20.0296 85.7407 20.0947 85.8254 20.154L85.1923 21.2529C85.0326 21.1247 84.8055 21.0136 84.5188 20.9236C84.2321 20.8318 83.9166 20.7839 83.5702 20.7839C83.3624 20.7839 83.1661 20.805 82.9776 20.849C82.789 20.8892 82.6254 20.9543 82.4811 21.0423C82.3407 21.1304 82.231 21.2453 82.1502 21.387C82.0693 21.5267 82.027 21.6933 82.027 21.8847C82.027 22.0589 82.0578 22.2064 82.1136 22.3193C82.1713 22.4342 82.2521 22.5337 82.356 22.6218C82.46 22.7099 82.5793 22.7903 82.7197 22.863C82.8563 22.9358 83.0064 23.0162 83.1681 23.1081C83.4047 23.2402 83.6299 23.3684 83.8415 23.4986C84.0513 23.6288 84.2379 23.7781 84.3995 23.9447C84.5612 24.1132 84.6882 24.3046 84.7844 24.5229C84.8806 24.7411 84.9287 25.0015 84.9287 25.3078C84.9287 25.7348 84.8479 26.11 84.6862 26.4297C84.5246 26.7513 84.2995 27.0155 84.007 27.2261C83.7145 27.4348 83.3701 27.5937 82.9718 27.7009C82.5716 27.8062 82.1367 27.8617 81.6595 27.8617C81.3459 27.8617 81.0553 27.8369 80.7917 27.7909C80.5261 27.745 80.2914 27.6894 80.0836 27.6205C79.8758 27.5516 79.6968 27.4788 79.5487 27.4023C79.3986 27.3257 79.2812 27.2568 79.1965 27.1974L79.8411 26.0621C79.9181 26.1157 80.0201 26.1789 80.1471 26.2459C80.2741 26.3148 80.4165 26.378 80.5781 26.4355C80.7397 26.4929 80.9148 26.5388 81.1073 26.579C81.2977 26.6154 81.5036 26.6346 81.7172 26.6346Z" fill="#424143"/>
<path fill-rule="evenodd" clip-rule="evenodd" d="M87.3564 20.1206L88.8053 19.8928L88.3647 21.7001H90.3369L90.0599 22.845H88.0876L87.5122 25.2151C87.4757 25.3836 87.4507 25.5233 87.4353 25.6344C87.4199 25.7454 87.4122 25.845 87.4122 25.9369C87.4122 26.0288 87.4237 26.1187 87.443 26.2068C87.4622 26.2949 87.4988 26.3714 87.5565 26.4346C87.6142 26.4997 87.6989 26.5533 87.8105 26.5954C87.9221 26.6356 88.0722 26.6586 88.2665 26.6586C88.4724 26.6586 88.6725 26.6299 88.863 26.5782C89.0554 26.5246 89.2248 26.4672 89.3691 26.4059L89.4749 27.5163C89.2979 27.5929 89.0747 27.6656 88.8053 27.7346C88.5359 27.8035 88.2223 27.836 87.8624 27.836C87.2024 27.836 86.731 27.6944 86.4462 27.4091C86.1634 27.1219 86.021 26.7314 86.021 26.2336C86.021 26.0517 86.0345 25.8622 86.0614 25.6669C86.0883 25.4736 86.1268 25.2668 86.1826 25.0428L87.3564 20.1206Z" fill="#424143"/>
<path fill-rule="evenodd" clip-rule="evenodd" d="M93.8334 22.7194C93.5351 22.7194 93.2677 22.8055 93.0348 22.9778C92.8001 23.1501 92.6038 23.3684 92.446 23.6364C92.2902 23.9025 92.1689 24.1955 92.0862 24.5113C92.0015 24.8292 91.9573 25.1355 91.9573 25.4322C91.9573 25.8151 92.0304 26.1157 92.1786 26.3378C92.3229 26.5598 92.5807 26.669 92.9482 26.669C93.2465 26.669 93.5139 26.5847 93.7468 26.4124C93.9815 26.2401 94.1778 26.0238 94.3356 25.7596C94.4914 25.4954 94.6127 25.2044 94.6973 24.8847C94.782 24.563 94.8243 24.2586 94.8243 23.9676C94.8243 23.5867 94.7512 23.2822 94.605 23.0583C94.4587 22.8323 94.2009 22.7194 93.8334 22.7194ZM92.7751 27.8502C92.0612 27.8502 91.5166 27.6377 91.1414 27.2203C90.7643 26.7992 90.5776 26.2459 90.5776 25.5586C90.5776 25.1163 90.6469 24.6588 90.7855 24.1859C90.9221 23.713 91.1337 23.2803 91.4166 22.8917C91.7014 22.5031 92.0573 22.1814 92.4884 21.9306C92.9175 21.6779 93.4235 21.5535 94.0065 21.5535C94.7204 21.5535 95.265 21.7602 95.6402 22.1757C96.0173 22.593 96.204 23.1444 96.204 23.8298C96.204 24.2797 96.1366 24.743 96.0038 25.2159C95.8692 25.6888 95.6613 26.1195 95.3823 26.5082C95.1014 26.8987 94.7454 27.2203 94.3125 27.4711C93.8776 27.7219 93.3658 27.8502 92.7751 27.8502Z" fill="#424143"/>
<path fill-rule="evenodd" clip-rule="evenodd" d="M98.4336 26.612C98.5106 26.6273 98.5914 26.6369 98.676 26.6426C98.7607 26.6464 98.8454 26.6484 98.93 26.6484C99.2976 26.6484 99.6304 26.5756 99.9248 26.4339C100.221 26.2942 100.473 26.1027 100.681 25.8615C100.887 25.6222 101.047 25.3388 101.158 25.0153C101.27 24.6898 101.326 24.3452 101.326 23.9796C101.326 23.8111 101.306 23.6522 101.268 23.5048C101.229 23.3554 101.166 23.2233 101.077 23.1085C100.989 22.9936 100.872 22.9036 100.721 22.8328C100.571 22.7658 100.383 22.7313 100.152 22.7313C99.998 22.7313 99.8517 22.7409 99.7151 22.76C99.5766 22.7792 99.4534 22.8041 99.3476 22.8328L98.4336 26.612ZM102.719 23.8532C102.719 24.395 102.632 24.9043 102.459 25.381C102.286 25.8577 102.034 26.2769 101.699 26.6349C101.364 26.993 100.958 27.2782 100.479 27.4888C99.9999 27.6975 99.4496 27.8028 98.8281 27.8028C98.7203 27.8028 98.6125 27.797 98.5009 27.7856C98.3893 27.7741 98.2797 27.7626 98.1719 27.7454L97.6639 29.8073H96.2747L98.1719 21.9425C98.4856 21.8258 98.8377 21.7339 99.2244 21.6669C99.6112 21.5979 100.002 21.5635 100.394 21.5635C100.793 21.5635 101.139 21.6228 101.435 21.7415C101.73 21.8602 101.972 22.023 102.161 22.2278C102.347 22.4327 102.486 22.6758 102.578 22.9553C102.671 23.2329 102.719 23.5335 102.719 23.8532Z" fill="#424143"/>
<path fill-rule="evenodd" clip-rule="evenodd" d="M111.326 26.4754L111.037 27.6892H106.055L107.964 19.7537H109.415L107.797 26.4754H111.326Z" fill="#424143"/>
<path fill-rule="evenodd" clip-rule="evenodd" d="M114.58 20.7954C114.375 20.7954 114.194 20.7361 114.042 20.6116C113.888 20.491 113.811 20.3072 113.811 20.0622C113.811 19.7807 113.907 19.5491 114.103 19.3653C114.299 19.1815 114.525 19.0896 114.779 19.0896C114.984 19.0896 115.167 19.1547 115.325 19.2791C115.481 19.4036 115.56 19.5893 115.56 19.8343C115.56 20.1177 115.46 20.3493 115.262 20.5255C115.061 20.7054 114.834 20.7954 114.58 20.7954ZM113.545 27.6895H112.152L113.603 21.701H114.996L113.545 27.6895Z" fill="#424143"/>
<path fill-rule="evenodd" clip-rule="evenodd" d="M116.702 27.6887C116.506 26.9095 116.333 26.0078 116.177 24.9816C116.019 23.9555 115.917 22.8623 115.869 21.7002H117.299C117.304 22.0371 117.318 22.399 117.337 22.7876C117.358 23.1782 117.383 23.5687 117.414 23.9631C117.447 24.3556 117.481 24.7347 117.526 25.1003C117.568 25.4679 117.618 25.7991 117.672 26.0978C117.87 25.8374 118.087 25.5253 118.318 25.1654C118.547 24.8017 118.771 24.4207 118.986 24.0186C119.202 23.6185 119.396 23.2165 119.575 22.8106C119.752 22.4066 119.892 22.0371 120.002 21.7002H121.453C121.268 22.2267 121.037 22.7704 120.76 23.3275C120.483 23.8846 120.185 24.4264 119.862 24.951C119.538 25.4794 119.205 25.9772 118.863 26.452C118.52 26.9267 118.195 27.3364 117.887 27.6887H116.702Z" fill="#424143"/>
<path fill-rule="evenodd" clip-rule="evenodd" d="M123.58 20.7954C123.374 20.7954 123.193 20.7361 123.041 20.6116C122.887 20.491 122.81 20.3072 122.81 20.0622C122.81 19.7807 122.906 19.5491 123.102 19.3653C123.299 19.1815 123.524 19.0896 123.776 19.0896C123.984 19.0896 124.167 19.1547 124.322 19.2791C124.48 19.4036 124.559 19.5893 124.559 19.8343C124.559 20.1177 124.459 20.3493 124.261 20.5255C124.059 20.7054 123.834 20.7954 123.58 20.7954ZM122.544 27.6895H121.151L122.602 21.701H123.995L122.544 27.6895Z" fill="#424143"/>
<path fill-rule="evenodd" clip-rule="evenodd" d="M125.663 21.9528C125.969 21.8609 126.321 21.7748 126.716 21.6944C127.11 21.614 127.543 21.5757 128.011 21.5757C128.715 21.5757 129.233 21.748 129.564 22.0888C129.893 22.4334 130.058 22.8948 130.058 23.4749C130.058 23.6357 130.045 23.8061 130.02 23.986C129.991 24.1641 129.958 24.3498 129.92 24.5412L129.16 27.6886H127.77L128.482 24.6886C128.519 24.5221 128.559 24.3498 128.596 24.1736C128.636 23.9975 128.659 23.829 128.667 23.6682C128.673 23.404 128.609 23.1819 128.476 23.0058C128.344 22.8297 128.08 22.7416 127.688 22.7416C127.359 22.7416 127.074 22.778 126.835 22.845L125.683 27.6886H124.282L125.663 21.9528Z" fill="#424143"/>
<path fill-rule="evenodd" clip-rule="evenodd" d="M133.464 26.2456C133.668 26.2456 133.883 26.2073 134.101 26.1307C134.318 26.0542 134.499 25.9604 134.645 25.8455L135.388 22.7881C135.211 22.7498 135.038 22.7306 134.868 22.7306C134.516 22.7306 134.197 22.7957 133.908 22.9259C133.619 23.0561 133.373 23.2322 133.167 23.4524C132.958 23.6725 132.796 23.931 132.682 24.2239C132.567 24.5207 132.509 24.8346 132.509 25.1697C132.509 25.5047 132.582 25.7689 132.727 25.9604C132.873 26.1499 133.117 26.2456 133.464 26.2456ZM132.453 28.6751C133.021 28.6751 133.446 28.543 133.737 28.2826C134.024 28.0242 134.218 27.67 134.316 27.2201L134.351 27.0593C134.197 27.1359 134.014 27.2067 133.798 27.2699C133.583 27.335 133.356 27.3675 133.119 27.3675C132.446 27.3675 131.944 27.1856 131.618 26.8238C131.291 26.462 131.128 25.9776 131.128 25.3764C131.128 24.827 131.226 24.3177 131.416 23.8525C131.609 23.3873 131.88 22.9852 132.226 22.6445C132.577 22.3056 132.998 22.0414 133.489 21.85C133.979 21.6585 134.524 21.5647 135.12 21.5647C135.413 21.5647 135.726 21.5953 136.061 21.6604C136.392 21.7255 136.694 21.8308 136.962 21.9763L135.744 27.0593C135.636 27.5092 135.501 27.9074 135.336 28.2558C135.17 28.6023 134.953 28.8933 134.685 29.125C134.416 29.3586 134.083 29.5366 133.689 29.6572C133.294 29.7798 132.817 29.841 132.257 29.841C131.849 29.841 131.484 29.797 131.158 29.7108C130.831 29.6228 130.545 29.5136 130.298 29.3835L130.795 28.2616C131.003 28.3822 131.243 28.4817 131.514 28.5583C131.786 28.6349 132.099 28.6751 132.453 28.6751Z" fill="#424143"/>
</svg>
