<svg width="116" height="20" viewBox="0 0 116 20" fill="none" xmlns="http://www.w3.org/2000/svg">
<mask id="mask0" style="mask-type:alpha" maskUnits="userSpaceOnUse" x="0" y="0" width="116" height="20">
<path d="M52.8755 1.09333C52.2298 0.692207 51.4513 0.563565 50.7108 0.735613C49.9703 0.907667 49.3283 1.36636 48.9255 2.01111L43.4278 10.8111L38.24 2.01889C37.9218 1.4845 37.4383 1.06819 36.8627 0.83286C36.2869 0.597529 35.6503 0.555963 35.0489 0.714447C34.6597 0.7876 34.2898 0.940707 33.9628 1.16409C33.6357 1.38747 33.3586 1.67627 33.1489 2.01222L27.6533 10.81L22.4645 2.01889C22.1729 1.52855 21.7415 1.1365 21.2255 0.893C20.7097 0.649497 20.1327 0.565655 19.5689 0.652222C19.1482 0.687067 18.7403 0.813533 18.3737 1.02275C18.0071 1.23197 17.6907 1.51887 17.4467 1.86333C17.3811 1.94778 17.31 2.03889 17.2522 2.13111L9.34113 14.7645C8.93733 15.4069 8.8052 16.1835 8.97373 16.9233C9.14227 17.6632 9.59773 18.3059 10.24 18.71C10.8853 19.1114 11.6634 19.2407 12.4039 19.0698C13.1445 18.8988 13.7871 18.4415 14.1911 17.7978L19.7022 9.0022L24.8778 17.7978C25.4978 18.8567 26.7145 19.3578 27.8667 19.1422C28.2645 19.0945 28.6545 18.9755 29.0111 18.7611C29.37 18.5455 29.68 18.2511 29.9111 17.9333C29.9733 17.8445 30.0445 17.7578 30.1 17.6622L35.5945 8.86667L40.8422 17.7667C41.6455 19.1267 43.4267 19.5567 44.7867 18.7522C45.1397 18.541 45.4453 18.2592 45.6845 17.9245C45.7478 17.8455 45.82 17.75 45.8755 17.6578L53.77 5.01667C54.6055 3.67222 54.2 1.90555 52.8645 1.06889L52.8755 1.09333ZM0 3.16667C0.0010314 2.40874 0.303107 1.68226 0.839773 1.14705C1.37644 0.611843 2.10374 0.311747 2.86167 0.312778C3.61959 0.313809 4.34607 0.615885 4.88128 1.15255C5.41649 1.68922 5.71659 2.41651 5.71555 3.17445V16.2133C5.71555 16.9713 5.41447 17.6981 4.87853 18.2341C4.34259 18.77 3.61571 19.0711 2.85778 19.0711C2.09985 19.0711 1.37296 18.77 0.837027 18.2341C0.301087 17.6981 0 16.9713 0 16.2133V3.16667ZM97.638 1.01111C96.992 0.609179 96.214 0.479615 95.4727 0.650827C94.732 0.82204 94.0893 1.28005 93.6853 1.92445L88.1753 10.7167L83.0013 1.91667C82.2013 0.552222 80.4347 0.111111 79.0713 0.91222C78.4153 1.29803 77.9393 1.92783 77.7473 2.66377C77.5553 3.3997 77.6627 4.18181 78.0453 4.83889L85.5987 17.6833C86.402 19.0455 88.1833 19.4833 89.5433 18.6789C89.9087 18.4678 90.2187 18.1778 90.4413 17.8567C90.5047 17.7733 90.5767 17.6822 90.64 17.59L98.5513 4.94889C98.7513 4.63068 98.8873 4.27613 98.95 3.90549C99.0133 3.53485 99.0033 3.15538 98.9193 2.78877C98.836 2.42215 98.6813 2.07559 98.464 1.76885C98.246 1.46212 97.9707 1.20124 97.652 1.00111L97.638 1.01V1.01111ZM56.1322 9.8622V9.79113C56.13 4.51333 60.37 0.238889 66.0811 0.238889C71.7587 0.238889 75.9647 4.45 75.9647 9.72113V9.78887C75.9647 15.0622 71.7233 19.3411 66.01 19.3411C60.3322 19.3411 56.1267 15.13 56.1267 9.85667L56.1322 9.8622ZM70.8347 9.85667V9.79C70.8347 7.08447 68.8867 4.72222 66.0167 4.72222C63.0422 4.72222 61.2611 7.01447 61.2611 9.72113V9.78887C61.2611 12.4933 63.21 14.8555 66.08 14.8555C69.0613 14.8555 70.8353 12.5633 70.8353 9.85667H70.8347ZM115.342 4.77555C114.945 3.22889 114.02 1.98667 112.598 1.08111C111.47 0.366667 110.342 0 109.247 0C108.841 0 108.428 0.0511111 108.053 0.144445C106.535 0.445555 105.311 1.31667 104.412 2.73222C103.442 4.25778 103.275 6.05445 103.903 8.07667C101.817 8.26887 100.247 9.17333 99.2287 10.7711C98.33 12.1945 98.068 13.6911 98.4653 15.2189C98.86 16.7445 99.788 17.9811 101.225 18.8933C102.377 19.6267 103.539 20 104.682 20C105.057 20 105.435 19.96 105.808 19.8811C107.313 19.5622 108.538 18.6755 109.447 17.2433C109.97 16.4211 110.231 15.4711 110.222 14.4389C110.241 13.6633 110.127 12.8533 109.872 11.9811C112.035 11.7422 113.645 10.8067 114.667 9.19553C115.541 7.81667 115.772 6.32889 115.352 4.78222L115.342 4.77555ZM111.055 5.82111C111.179 6.21889 111.122 6.50555 110.875 6.89553C110.493 7.50113 109.635 7.72333 108.33 7.72333H108.275C107.735 7.20333 107.647 5.72111 108.02 5.12889C108.259 4.75111 108.577 4.56333 109.015 4.44889C109.102 4.43333 109.181 4.44889 109.269 4.44889C109.602 4.44889 109.921 4.56 110.255 4.76667C110.677 5.03778 110.939 5.37222 111.073 5.81778L111.055 5.82111ZM102.805 14.1278C102.693 13.73 102.757 13.3555 103.005 12.9655C103.222 12.6084 103.565 12.3447 103.965 12.2255C104.363 12.1011 104.832 12.04 105.397 12.04H105.571C106.141 13.2178 106.238 14.1155 105.857 14.7145C105.607 15.1089 105.295 15.3433 104.879 15.4545C104.794 15.4703 104.707 15.4785 104.621 15.4789C104.31 15.4789 103.992 15.3733 103.651 15.1567C103.205 14.8745 102.935 14.5345 102.815 14.1167L102.805 14.1278Z" fill="white"/>
</mask>
<g mask="url(#mask0)">
<path d="M52.8755 1.09333C52.2298 0.692207 51.4513 0.563565 50.7108 0.735613C49.9703 0.907667 49.3283 1.36636 48.9255 2.01111L43.4278 10.8111L38.24 2.01889C37.9218 1.4845 37.4383 1.06819 36.8627 0.83286C36.2869 0.597529 35.6503 0.555963 35.0489 0.714447C34.6597 0.7876 34.2898 0.940707 33.9628 1.16409C33.6357 1.38747 33.3586 1.67627 33.1489 2.01222L27.6533 10.81L22.4645 2.01889C22.1729 1.52855 21.7415 1.1365 21.2255 0.893C20.7097 0.649497 20.1327 0.565655 19.5689 0.652222C19.1482 0.687067 18.7403 0.813533 18.3737 1.02275C18.0071 1.23197 17.6907 1.51887 17.4467 1.86333C17.3811 1.94778 17.31 2.03889 17.2522 2.13111L9.34113 14.7645C8.93733 15.4069 8.8052 16.1835 8.97373 16.9233C9.14227 17.6632 9.59773 18.3059 10.24 18.71C10.8853 19.1114 11.6634 19.2407 12.4039 19.0698C13.1445 18.8988 13.7871 18.4415 14.1911 17.7978L19.7022 9.0022L24.8778 17.7978C25.4978 18.8567 26.7145 19.3578 27.8667 19.1422C28.2645 19.0945 28.6545 18.9755 29.0111 18.7611C29.37 18.5455 29.68 18.2511 29.9111 17.9333C29.9733 17.8445 30.0445 17.7578 30.1 17.6622L35.5945 8.86667L40.8422 17.7667C41.6455 19.1267 43.4267 19.5567 44.7867 18.7522C45.1397 18.541 45.4453 18.2592 45.6845 17.9245C45.7478 17.8455 45.82 17.75 45.8755 17.6578L53.77 5.01667C54.6055 3.67222 54.2 1.90555 52.8645 1.06889L52.8755 1.09333ZM0 3.16667C0.0010314 2.40874 0.303107 1.68226 0.839773 1.14705C1.37644 0.611843 2.10374 0.311747 2.86167 0.312778C3.61959 0.313809 4.34607 0.615885 4.88128 1.15255C5.41649 1.68922 5.71659 2.41651 5.71555 3.17445V16.2133C5.71555 16.9713 5.41447 17.6981 4.87853 18.2341C4.34259 18.77 3.61571 19.0711 2.85778 19.0711C2.09985 19.0711 1.37296 18.77 0.837027 18.2341C0.301087 17.6981 0 16.9713 0 16.2133V3.16667ZM97.638 1.01111C96.992 0.609179 96.214 0.479615 95.4727 0.650827C94.732 0.82204 94.0893 1.28005 93.6853 1.92445L88.1753 10.7167L83.0013 1.91667C82.2013 0.552222 80.4347 0.111111 79.0713 0.91222C78.4153 1.29803 77.9393 1.92783 77.7473 2.66377C77.5553 3.3997 77.6627 4.18181 78.0453 4.83889L85.5987 17.6833C86.402 19.0455 88.1833 19.4833 89.5433 18.6789C89.9087 18.4678 90.2187 18.1778 90.4413 17.8567C90.5047 17.7733 90.5767 17.6822 90.64 17.59L98.5513 4.94889C98.7513 4.63068 98.8873 4.27613 98.95 3.90549C99.0133 3.53485 99.0033 3.15538 98.9193 2.78877C98.836 2.42215 98.6813 2.07559 98.464 1.76885C98.246 1.46212 97.9707 1.20124 97.652 1.00111L97.638 1.01V1.01111ZM56.1322 9.8622V9.79113C56.13 4.51333 60.37 0.238889 66.0811 0.238889C71.7587 0.238889 75.9647 4.45 75.9647 9.72113V9.78887C75.9647 15.0622 71.7233 19.3411 66.01 19.3411C60.3322 19.3411 56.1267 15.13 56.1267 9.85667L56.1322 9.8622ZM70.8347 9.85667V9.79C70.8347 7.08447 68.8867 4.72222 66.0167 4.72222C63.0422 4.72222 61.2611 7.01447 61.2611 9.72113V9.78887C61.2611 12.4933 63.21 14.8555 66.08 14.8555C69.0613 14.8555 70.8353 12.5633 70.8353 9.85667H70.8347ZM115.342 4.77555C114.945 3.22889 114.02 1.98667 112.598 1.08111C111.47 0.366667 110.342 0 109.247 0C108.841 0 108.428 0.0511111 108.053 0.144445C106.535 0.445555 105.311 1.31667 104.412 2.73222C103.442 4.25778 103.275 6.05445 103.903 8.07667C101.817 8.26887 100.247 9.17333 99.2287 10.7711C98.33 12.1945 98.068 13.6911 98.4653 15.2189C98.86 16.7445 99.788 17.9811 101.225 18.8933C102.377 19.6267 103.539 20 104.682 20C105.057 20 105.435 19.96 105.808 19.8811C107.313 19.5622 108.538 18.6755 109.447 17.2433C109.97 16.4211 110.231 15.4711 110.222 14.4389C110.241 13.6633 110.127 12.8533 109.872 11.9811C112.035 11.7422 113.645 10.8067 114.667 9.19553C115.541 7.81667 115.772 6.32889 115.352 4.78222L115.342 4.77555ZM111.055 5.82111C111.179 6.21889 111.122 6.50555 110.875 6.89553C110.493 7.50113 109.635 7.72333 108.33 7.72333H108.275C107.735 7.20333 107.647 5.72111 108.02 5.12889C108.259 4.75111 108.577 4.56333 109.015 4.44889C109.102 4.43333 109.181 4.44889 109.269 4.44889C109.602 4.44889 109.921 4.56 110.255 4.76667C110.677 5.03778 110.939 5.37222 111.073 5.81778L111.055 5.82111ZM102.805 14.1278C102.693 13.73 102.757 13.3555 103.005 12.9655C103.222 12.6084 103.565 12.3447 103.965 12.2255C104.363 12.1011 104.832 12.04 105.397 12.04H105.571C106.141 13.2178 106.238 14.1155 105.857 14.7145C105.607 15.1089 105.295 15.3433 104.879 15.4545C104.794 15.4703 104.707 15.4785 104.621 15.4789C104.31 15.4789 103.992 15.3733 103.651 15.1567C103.205 14.8745 102.935 14.5345 102.815 14.1167L102.805 14.1278Z" fill="white"/>
<path fill-rule="evenodd" clip-rule="evenodd" d="M0 -3.33334H115.555V23.3333H0V-3.33334Z" fill="#EC6833"/>
</g>
</svg>
