<svg width="33" height="32" viewBox="0 0 33 32" fill="none" xmlns="http://www.w3.org/2000/svg">
<path fill-rule="evenodd" clip-rule="evenodd" d="M7.07538 19.2614C7.12288 19.3699 7.19266 19.4707 7.28438 19.5566C7.30406 19.5751 7.32457 19.5927 7.34585 19.6093C7.41478 19.6633 7.48952 19.7057 7.56757 19.7367C7.66053 19.7736 7.75818 19.7943 7.85631 19.799C7.87083 19.7997 7.88536 19.8 7.89988 19.8H13.8999C14.3969 19.8 14.7999 19.3971 14.7999 18.9C14.7999 18.403 14.3969 18 13.8999 18H9.93436L18.5658 8.50541C18.9002 8.13762 18.8731 7.56842 18.5053 7.23406C18.1375 6.8997 17.5683 6.92681 17.2339 7.2946L8.79988 16.5721V12.9C8.79988 12.403 8.39693 12 7.89988 12C7.40282 12 6.99988 12.403 6.99988 12.9V18.8949V18.9C6.99988 19.0286 7.02683 19.1508 7.07538 19.2614Z" fill="white"/>
<path fill-rule="evenodd" clip-rule="evenodd" d="M25.6243 12.5386C25.5768 12.4301 25.5071 12.3293 25.4153 12.2434C25.3956 12.225 25.3751 12.2074 25.3539 12.1907C25.2849 12.1368 25.2102 12.0944 25.1321 12.0634C25.0392 12.0265 24.9415 12.0058 24.8434 12.0011C24.8289 12.0004 24.8144 12 24.7998 12H18.7998C18.3028 12 17.8998 12.403 17.8998 12.9C17.8998 13.3971 18.3028 13.8 18.7998 13.8H22.7653L14.1339 23.2946C13.7995 23.6624 13.8266 24.2316 14.1944 24.566C14.5622 24.9003 15.1314 24.8732 15.4658 24.5054L23.8998 15.228V18.9C23.8998 19.3971 24.3028 19.8 24.7998 19.8C25.2969 19.8 25.6998 19.3971 25.6998 18.9V12.9051V12.9C25.6998 12.7715 25.6729 12.6492 25.6243 12.5386Z" fill="white"/>
</svg>
