<svg width="1728" height="64" viewBox="0 0 1728 64" fill="none" xmlns="http://www.w3.org/2000/svg">
<g clip-path="url(#clip0_314_35555)">
<rect width="1728" height="64" fill="white"/>
<line x1="-1.09278e-08" y1="0.875" x2="1455" y2="0.874873" stroke="white" stroke-width="0.25"/>
<rect x="-36.2043" y="-44.5449" width="132.223" height="83.428" rx="1.625" transform="rotate(14.1113 -36.2043 -44.5449)" stroke="url(#paint0_linear_314_35555)" stroke-opacity="0.8" stroke-width="0.75"/>
<rect x="1040.44" y="143.353" width="84.25" height="68.25" transform="rotate(-79.7959 1040.44 143.353)" stroke="url(#paint1_linear_314_35555)" stroke-opacity="0.6" stroke-width="0.75"/>
<rect x="1642.54" y="-39.5677" width="107.516" height="68.25" transform="rotate(28.4285 1642.54 -39.5677)" stroke="url(#paint2_linear_314_35555)" stroke-opacity="0.6" stroke-width="0.75"/>
<rect x="1562.09" y="-16.6863" width="153.824" height="87.4664" transform="rotate(-12.5266 1562.09 -16.6863)" stroke="url(#paint3_linear_314_35555)" stroke-opacity="0.8" stroke-width="0.75"/>
<rect x="809.091" y="-16.6862" width="377.882" height="87.4664" transform="rotate(-12.5266 809.091 -16.6862)" stroke="url(#paint4_linear_314_35555)" stroke-opacity="0.8" stroke-width="0.75"/>
<rect x="-67.5348" y="-44.5932" width="102.369" height="68.25" rx="1.625" transform="rotate(5.0927 -67.5348 -44.5932)" stroke="url(#paint5_linear_314_35555)" stroke-opacity="0.8" stroke-width="0.75"/>
<rect x="1728.17" y="21.4455" width="84.25" height="68.25" transform="rotate(77.8557 1728.17 21.4455)" stroke="url(#paint6_linear_314_35555)" stroke-opacity="0.6" stroke-width="0.75"/>
<rect x="480" y="4.5083" width="107.516" height="68.25" transform="rotate(28.4285 480 4.5083)" stroke="url(#paint7_linear_314_35555)" stroke-opacity="0.6" stroke-width="0.75"/>
<rect x="375.168" y="45.4455" width="84.25" height="68.25" transform="rotate(77.8557 375.168 45.4455)" stroke="url(#paint8_linear_314_35555)" stroke-opacity="0.6" stroke-width="0.75"/>
<rect x="316.528" y="-17.9175" width="84.25" height="68.25" transform="rotate(-50.0156 316.528 -17.9175)" stroke="url(#paint9_linear_314_35555)" stroke-opacity="0.6" stroke-width="0.75"/>
<rect x="181.33" y="33.5181" width="152.543" height="116.519" rx="1.625" transform="rotate(-175.337 181.33 33.5181)" stroke="url(#paint10_linear_314_35555)" stroke-opacity="0.8" stroke-width="0.75"/>
<rect x="-0.11261" y="0.0372925" width="303.677" height="64.3881" transform="rotate(0.0802613 -0.11261 0.0372925)" fill="url(#paint11_linear_314_35555)"/>
<rect x="1728" y="64" width="261" height="64" transform="rotate(180 1728 64)" fill="url(#paint12_linear_314_35555)"/>
</g>
<defs>
<linearGradient id="paint0_linear_314_35555" x1="52.2601" y1="42.9432" x2="44.608" y2="-65.4686" gradientUnits="userSpaceOnUse">
<stop stop-color="#2A86F3"/>
<stop offset="1" stop-color="#2A86F3" stop-opacity="0"/>
</linearGradient>
<linearGradient id="paint1_linear_314_35555" x1="1122.5" y1="212.656" x2="1064.5" y2="158.156" gradientUnits="userSpaceOnUse">
<stop stop-color="#2A86F3"/>
<stop offset="1" stop-color="#2A86F3" stop-opacity="0"/>
</linearGradient>
<linearGradient id="paint2_linear_314_35555" x1="1747.47" y1="28.924" x2="1690.28" y2="-39.52" gradientUnits="userSpaceOnUse">
<stop stop-color="#2A86F3"/>
<stop offset="1" stop-color="#2A86F3" stop-opacity="0"/>
</linearGradient>
<linearGradient id="paint3_linear_314_35555" x1="1636.67" y1="8.43226" x2="1697.73" y2="113.863" gradientUnits="userSpaceOnUse">
<stop stop-color="#2A86F3"/>
<stop offset="0.484375" stop-color="#2A56F3" stop-opacity="0.86"/>
<stop offset="1" stop-color="#2A86F3" stop-opacity="0"/>
</linearGradient>
<linearGradient id="paint4_linear_314_35555" x1="781.071" y1="64.9703" x2="874.476" y2="189.707" gradientUnits="userSpaceOnUse">
<stop stop-color="#2A86F3"/>
<stop offset="0.484375" stop-color="#2A56F3" stop-opacity="0.86"/>
<stop offset="1" stop-color="#2A86F3" stop-opacity="0"/>
</linearGradient>
<linearGradient id="paint5_linear_314_35555" x1="67.726" y1="11.2407" x2="-45.8633" y2="2.05343" gradientUnits="userSpaceOnUse">
<stop stop-color="#2A6EF3"/>
<stop offset="1" stop-color="#2A86F3" stop-opacity="0"/>
</linearGradient>
<linearGradient id="paint6_linear_314_35555" x1="1786.81" y1="108.695" x2="1778.16" y2="-24.6075" gradientUnits="userSpaceOnUse">
<stop stop-color="#2A86F3"/>
<stop offset="1" stop-color="#2A86F3" stop-opacity="0"/>
</linearGradient>
<linearGradient id="paint7_linear_314_35555" x1="584.93" y1="73" x2="527.743" y2="4.55597" gradientUnits="userSpaceOnUse">
<stop stop-color="#2A86F3"/>
<stop offset="1" stop-color="#2A86F3" stop-opacity="0"/>
</linearGradient>
<linearGradient id="paint8_linear_314_35555" x1="433.813" y1="132.695" x2="425.163" y2="-0.607494" gradientUnits="userSpaceOnUse">
<stop stop-color="#2A86F3"/>
<stop offset="1" stop-color="#2A86F3" stop-opacity="0"/>
</linearGradient>
<linearGradient id="paint9_linear_314_35555" x1="398.5" y1="51.1289" x2="340.5" y2="-3.3711" gradientUnits="userSpaceOnUse">
<stop stop-color="#2A86F3"/>
<stop offset="1" stop-color="#2A86F3" stop-opacity="0"/>
</linearGradient>
<linearGradient id="paint10_linear_314_35555" x1="163.174" y1="94.0475" x2="277.742" y2="144.399" gradientUnits="userSpaceOnUse">
<stop stop-color="#2A86F3"/>
<stop offset="1" stop-color="#2A86F3" stop-opacity="0"/>
</linearGradient>
<linearGradient id="paint11_linear_314_35555" x1="-173.864" y1="32.1826" x2="313.067" y2="52.0522" gradientUnits="userSpaceOnUse">
<stop stop-color="#BFDFF7" stop-opacity="0.92"/>
<stop offset="1" stop-color="#EAF6FF" stop-opacity="0"/>
</linearGradient>
<linearGradient id="paint12_linear_314_35555" x1="1626.5" y1="96" x2="1971.49" y2="97.559" gradientUnits="userSpaceOnUse">
<stop stop-color="#BFDFF6" stop-opacity="0.9"/>
<stop offset="1" stop-color="#EAF6FF" stop-opacity="0"/>
</linearGradient>
<clipPath id="clip0_314_35555">
<rect width="1728" height="64" fill="white"/>
</clipPath>
</defs>
</svg>
